# xmcd
#
# Track frame offsets: 
#        150
#        7184
#        16993
#        22149
#        27381
#        38636
#        46175
#        76781
#        87009
#        93923
#        100457
#        110429
#        125824
#        132734
#        136632
#        149277
#        161619
#        165457
#        170406
#        179321
#        183235
#        195287
#        200475
#        205076
#        224821
#        230084
#        242121
#        249899
#        268499
#        274126
#        286801
#        310163
#        317700
#        323033
#        339728
#        346348
#
# Disc length: 4653 seconds
#
# Revision: 2
# Processed by: cddbd v1.5.2PL0 Copyright (c) Steve Scherf et al.
# Submitted via: ExactAudioCopyFreeDBPlugin 1.0
#
DISCID=0d122b24
DTITLE=Various Artist - The Art of Field Recording Vol. 1 CD4 Instrum
DTITLE=ental and Dance
DYEAR=2007
DGENRE=Blues
TTITLE0=Dallas Henderson - Lost indian
TTITLE1=Ben Entrekin, Uncle John Patterson and James Patterson - Flat 
TTITLE1=Foot Charlie
TTITLE2=Lawrence Eller and Vaughn Eller - Down the road
TTITLE3=Clester Houchell - Sally, won't you have me, do, gal, do
TTITLE4=Coy Martin - Fox chase
TTITLE5=Neal Patman - Fox chase
TTITLE6=Gordon Tanner, Smokey Joe Miller and Uncle John Patterson - Me
TTITLE6=dley
TTITLE7=Janes ''Yank'' Rachel and Shirley Griffith - Mandolin stomp
TTITLE8=Albert Hash - Omie Wise
TTITLE9=Albert Hash and Art Rosenbaum - Train 45
TTITLE10=George Childers - Turkey in the straw
TTITLE11=Louis and Larry Riendeau - Arkansas traveler
TTITLE12=Dwight ''Red'' Lamb - Fynne's polka
TTITLE13=News Tolman - Pigtown fling
TTITLE14=John W. Summers and Art Rosenbaum - Stony point
TTITLE15=Earl Murphy and Bill Ashley - Cowboy waltz
TTITLE16=Clester Hounchell - Walk, little Julie
TTITLE17=Rev. Howard Finster - Five to my five
TTITLE18=Delbert Spray and Art Rosenbaum - Quit kicking my dog around
TTITLE19=Old Threshers' Fife and Drum Band - Yankee doodle
TTITLE20=John W. Summers - Jig medley
TTITLE21=Buell Kazee - Big foot feller
TTITLE22=Buford Boyd - Don't let your deal go down
TTITLE23=Uncle John Patterson - Shout, Lulu
TTITLE24=Jake Staggers - Shout, Lulu
TTITLE25=W. Guy Bruce - Shout, Lulu
TTITLE26=W. Guy Bruce and Guy Bruce, Jr. - Sally Ann
TTITLE27=Gordon Tanner, Phil Tanner, Art Rosenbaum and Larry Nash - Ar
TTITLE27=kansas traveler
TTITLE28=Frosty Lamb and Buzz Fountain - Beaumont rag
TTITLE29=Kirk Brandenberger and Art Rosenbaum - Whistler's waltz
TTITLE30=W. Guy Bruce - Shady grove
TTITLE31=Rosa Brown - Coal Creek march
TTITLE32=Pete Steele - Coal Creek march
TTITLE33=Harry ''Pappy'' Wells - Jenny Nettles
TTITLE34=Lyman Enlos and Bob Black - Fourteen days in Georgia
TTITLE35=Maude Thacker - She'll be coming 'round the mountain
EXTD=
EXTT0=
EXTT1=
EXTT2=
EXTT3=
EXTT4=
EXTT5=
EXTT6=
EXTT7=
EXTT8=
EXTT9=
EXTT10=
EXTT11=
EXTT12=
EXTT13=
EXTT14=
EXTT15=
EXTT16=
EXTT17=
EXTT18=
EXTT19=
EXTT20=
EXTT21=
EXTT22=
EXTT23=
EXTT24=
EXTT25=
EXTT26=
EXTT27=
EXTT28=
EXTT29=
EXTT30=
EXTT31=
EXTT32=
EXTT33=
EXTT34=
EXTT35=
PLAYORDER=
